<svg xmlns="http://www.w3.org/2000/svg" xmlns:xlink="http://www.w3.org/1999/xlink" width="500" zoomAndPan="magnify" viewBox="0 0 375 374.999991" height="500" preserveAspectRatio="xMidYMid meet" version="1.0"><defs><g/></defs><rect x="-37.5" width="450" fill="#ffffff" y="-37.499999" height="449.999989" fill-opacity="1"/><rect x="-37.5" width="450" fill="#ffffff" y="-37.499999" height="449.999989" fill-opacity="1"/><rect x="-37.5" width="450" fill="#e2e8f0" y="-37.499999" height="449.999989" fill-opacity="1"/><g fill="#22c55e" fill-opacity="1"><g transform="translate(128.566402, 257.001414)"><g><path d="M 108.730469 -6.910156 C 108.730469 -2.4375 106.699219 0 102.632812 0 L 79.871094 0 C 76.011719 0 73.773438 -2.03125 73.773438 -6.097656 L 73.773438 -23.777344 C 73.773438 -27.84375 71.742188 -29.875 67.675781 -29.875 L 50.199219 -29.875 C 46.335938 -29.875 44.101562 -27.84375 44.101562 -23.777344 L 44.101562 -6.097656 C 44.101562 -2.03125 42.070312 0 38.003906 0 L 15.242188 0 C 11.382812 0 9.144531 -2.4375 9.144531 -6.910156 L 9.144531 -93.082031 C 9.144531 -118.6875 13.210938 -145.921875 58.9375 -145.921875 C 104.667969 -145.921875 108.730469 -118.6875 108.730469 -93.082031 Z M 73.773438 -93.082031 C 73.773438 -102.835938 72.351562 -107.714844 58.9375 -107.714844 C 45.523438 -107.714844 44.101562 -102.835938 44.101562 -93.082031 L 44.101562 -70.929688 C 44.101562 -67.066406 46.335938 -64.832031 50.199219 -64.832031 L 67.675781 -64.832031 C 71.742188 -65.035156 73.773438 -67.066406 73.773438 -71.132812 Z M 73.773438 -93.082031 "/></g></g></g></svg>