<svg xmlns="http://www.w3.org/2000/svg" xmlns:xlink="http://www.w3.org/1999/xlink" zoomAndPan="magnify" preserveAspectRatio="xMidYMid meet" version="1.0" viewBox="109.73 78.67 155.49 227.84"><defs><g/></defs><g fill="#22c55e" fill-opacity="1"><g transform="translate(95.449729, 306.514483)"><g><path d="M 169.773438 -10.789062 C 169.773438 -3.808594 166.597656 0 160.25 0 L 124.710938 0 C 118.679688 0 115.191406 -3.171875 115.191406 -9.519531 L 115.191406 -37.128906 C 115.191406 -43.472656 112.015625 -46.648438 105.671875 -46.648438 L 78.378906 -46.648438 C 72.351562 -46.648438 68.859375 -43.472656 68.859375 -37.128906 L 68.859375 -9.519531 C 68.859375 -3.171875 65.6875 0 59.339844 0 L 23.800781 0 C 17.769531 0 14.28125 -3.808594 14.28125 -10.789062 L 14.28125 -145.335938 C 14.28125 -185.320312 20.625 -227.84375 92.027344 -227.84375 C 163.425781 -227.84375 169.773438 -185.320312 169.773438 -145.335938 Z M 115.191406 -145.335938 C 115.191406 -160.570312 112.96875 -168.183594 92.027344 -168.183594 C 71.082031 -168.183594 68.859375 -160.570312 68.859375 -145.335938 L 68.859375 -110.75 C 68.859375 -104.71875 72.351562 -101.226562 78.378906 -101.226562 L 105.671875 -101.226562 C 112.015625 -101.546875 115.191406 -104.71875 115.191406 -111.066406 Z M 115.191406 -145.335938 "/></g></g></g></svg>